<?xml version="1.0" encoding="UTF-8" standalone="no"?>
<!-- Created with Inkscape (http://www.inkscape.org/) -->

<svg
   width="210mm"
   height="210mm"
   viewBox="0 0 210 210"
   version="1.1"
   id="svg1"
   xml:space="preserve"
   inkscape:version="1.3.2 (091e20e, 2023-11-25, custom)"
   sodipodi:docname="logo_flat.svg"
   xmlns:inkscape="http://www.inkscape.org/namespaces/inkscape"
   xmlns:sodipodi="http://sodipodi.sourceforge.net/DTD/sodipodi-0.dtd"
   xmlns="http://www.w3.org/2000/svg"
   xmlns:svg="http://www.w3.org/2000/svg"><sodipodi:namedview
     id="namedview1"
     pagecolor="#ffffff"
     bordercolor="#666666"
     borderopacity="1.0"
     inkscape:showpageshadow="2"
     inkscape:pageopacity="0.0"
     inkscape:pagecheckerboard="0"
     inkscape:deskcolor="#d1d1d1"
     inkscape:document-units="mm"
     inkscape:zoom="0.73386633"
     inkscape:cx="869.36813"
     inkscape:cy="483.058"
     inkscape:window-width="2390"
     inkscape:window-height="1361"
     inkscape:window-x="1357"
     inkscape:window-y="1200"
     inkscape:window-maximized="0"
     inkscape:current-layer="layer1" /><defs
     id="defs1" /><g
     inkscape:label="Layer 1"
     inkscape:groupmode="layer"
     id="layer1"><path
       style="fill:#000000"
       d="m 102.32612,188.74795 c -1.06682,-0.29443 -7.533264,-3.54599 -37.686984,-18.95039 -4.2201,-2.1559 -13.32838,-6.7642 -20.24062,-10.24068 -11.97346,-6.022 -12.65004,-6.40121 -14.30903,-8.02003 -1.22972,-1.19995 -2.02757,-2.28217 -2.71566,-3.68354 -1.90215,-3.87398 -1.83815,-2.49971 -1.64502,-35.32187 l 0.17281,-29.368756 0.71564,-1.44372 c 0.3936,-0.79404 1.13326,-1.77377 1.64368,-2.17716 0.80581,-0.63685 15.46371,-6.830174 16.16515,-6.830174 0.15371,0 0.22838,0.78273 0.18246,1.912664 l -0.0777,1.91265 -5.95313,2.44293 c -4.07518,1.67229 -6.14091,2.6594 -6.54843,3.12918 -1.24049,1.43 -0.46852,3.15472 1.88555,4.21267 0.74558,0.33507 4.57028,2.15827 8.49934,4.05156 3.92906,1.89329 12.85875,6.09161 19.84375,9.32961 20.98857,9.729546 34.50829,16.004836 37.27546,17.301696 3.322864,1.5573 4.486004,1.84235 6.888484,1.68817 1.84313,-0.11828 2.38876,-0.33326 10.77106,-4.24379 4.85627,-2.26556 16.62818,-7.711 26.15979,-12.10096 9.53162,-4.389966 19.71146,-9.210446 22.62188,-10.712186 2.91042,-1.50173 6.75214,-3.46669 8.53716,-4.36657 3.98249,-2.00768 4.62175,-2.8573 3.61485,-4.80443 -0.4574,-0.88452 -0.54859,-0.9311 -7.72024,-3.94312 l -4.56406,-1.91686 v -1.96443 c 0,-1.916424 0.0145,-1.959854 0.59531,-1.776734 1.96472,0.61949 14.24972,5.805344 15.03377,6.346194 0.51959,0.35842 1.21105,1.01192 1.53657,1.45222 1.40553,1.90108 1.35518,0.70144 1.35518,32.286456 0,20.51269 -0.0885,29.74371 -0.29442,30.72455 -0.75559,3.59836 -3.28723,7.24411 -6.27434,9.03553 -0.82557,0.49511 -6.26353,3.37232 -12.08436,6.3938 -5.82084,3.02149 -15.88162,8.25964 -22.3573,11.64034 -36.19493,18.89599 -33.95797,17.75408 -35.45416,18.09851 -1.57275,0.36206 -4.07412,0.32017 -5.57241,-0.0933 z m 20.3931,-18.80398 c 2.30024,-1.16561 2.12411,0.93843 2.04798,-24.46508 -0.0771,-25.72178 0.13983,-23.6451 -2.34844,-22.48383 -2.60031,1.21355 -2.34941,-1.39937 -2.34941,24.46717 0,12.53586 0.0794,22.87185 0.17639,22.96886 0.33699,0.33699 1.17151,0.17265 2.47348,-0.48712 z m 14.22762,-7.60358 c 0.23044,-0.27766 0.31371,-6.09051 0.32636,-22.78248 0.009,-12.32533 -0.0547,-22.52574 -0.14238,-22.66757 -0.0876,-0.14182 -0.39442,-0.25786 -0.68171,-0.25786 -0.77715,0 -3.09093,1.24623 -3.40568,1.83433 -0.18285,0.34167 -0.27408,7.95523 -0.27408,22.87367 0,25.56272 -0.22894,23.44087 2.38678,22.12046 0.81474,-0.41128 1.62056,-0.91553 1.79071,-1.12055 z m -65.404714,-4.16887 c 6.22916,-1.57663 9.99448,-5.26382 13.02754,-12.75722 l 0.29111,-0.71921 1.13397,0.42506 c 1.75166,0.65661 4.58144,0.58326 6.02877,-0.15627 1.42459,-0.72792 2.55111,-1.73349 3.08295,-2.75197 0.48655,-0.93174 0.28997,-1.20809 -1.84288,-2.59061 -1.86613,-1.20963 -3.53895,-1.79252 -5.4738,-1.90734 l -1.45481,-0.0863 -0.1697,-1.37081 c -0.23434,-1.89286 -1.80194,-5.06304 -3.29053,-6.65447 -0.68332,-0.73052 -1.37493,-1.328 -1.53691,-1.32774 -0.51147,8.2e-4 -1.71795,2.21405 -2.17201,3.98443 -0.53902,2.10168 -0.38294,4.83066 0.38778,6.77984 l 0.54251,1.37203 -0.98161,0.34411 c -1.50065,0.52607 -4.66808,0.38612 -6.65202,-0.29391 -2.00572,-0.6875 -20.04581,-7.61814 -26.84121,-10.31185 -2.6017,-1.03132 -4.94899,-1.87513 -5.21621,-1.87513 -0.88821,0 -1.1198,0.96563 -0.94859,3.95513 0.57377,10.01842 6.41676,18.84099 15.516,23.42826 5.52392,2.78482 11.7609,3.73111 16.56965,2.51399 z m -22.64823,-13.45504 c -0.57027,-0.57027 -0.79121,-1.04404 -0.79121,-1.6966 0,-1.68926 1.58223,-2.33964 2.77939,-1.14248 0.86129,0.86129 1.1021,1.93102 0.62638,2.78258 -0.56512,1.0116 -1.63631,1.03475 -2.61456,0.0565 z m 99.220584,12.00073 c 0.71754,-0.36361 1.42864,-0.89284 1.58023,-1.17608 0.18633,-0.34816 0.25368,-7.64504 0.20793,-22.52727 -0.0609,-19.79959 -0.11002,-22.039 -0.48898,-22.27803 -0.3088,-0.19477 -0.82354,-0.0816 -1.92736,0.42374 -1.18279,0.5415 -1.58927,0.88868 -1.89379,1.61749 -0.32972,0.78913 -0.38774,4.11918 -0.38774,22.25286 0,14.19378 0.0916,21.49598 0.27389,21.83662 0.36635,0.68453 1.06881,0.64474 2.63582,-0.14933 z m 12.4265,-6.61006 c 2.31104,-1.1711 2.12629,0.85297 2.12629,-23.29417 0,-22.43389 0.0176,-22.08676 -1.12005,-22.08676 -0.7534,0 -3.02497,1.24347 -3.24013,1.77366 -0.10608,0.26141 -0.25712,10.06544 -0.33564,21.78672 -0.14727,21.98302 -0.12798,22.47713 0.87746,22.47713 0.218,0 0.97943,-0.29546 1.69207,-0.65658 z m 11.84541,-6.22796 c 0.87123,-0.49965 1.42953,-1.01384 1.50552,-1.38658 0.0664,-0.32583 0.17777,-9.95588 0.24744,-21.40012 0.10993,-18.05622 0.0751,-20.88141 -0.26374,-21.365106 -0.50408,-0.71966 -0.88589,-0.70228 -2.4961,0.11368 -0.81261,0.411776 -1.42262,0.929606 -1.5787,1.340136 -0.27776,0.73056 -0.36839,42.36298 -0.0938,43.0786 0.24182,0.63016 1.13918,0.50269 2.67936,-0.38061 z m -99.280584,-8.05734 v -2.89609 l -2.23397,-0.8706 c -1.22868,-0.47883 -2.39344,-0.8706 -2.58835,-0.8706 -0.27951,0 -0.33858,0.62712 -0.27957,2.96811 l 0.0748,2.96811 2.11666,0.84852 c 1.16417,0.46668 2.29526,0.82604 2.51354,0.79858 0.32557,-0.041 0.39688,-0.57031 0.39688,-2.94603 z m -6.48229,-2.22364 c 0,-1.98787 -0.10229,-2.95814 -0.33073,-3.13707 -0.41783,-0.32727 -3.93311,-1.65783 -4.3799,-1.65783 -0.25327,0 -0.31574,0.716 -0.25897,2.96811 l 0.0748,2.96811 2.11666,0.84546 c 1.16417,0.465 2.2655,0.85576 2.4474,0.86835 0.24572,0.017 0.33073,-0.7169 0.33073,-2.85513 z m -6.35,-2.38125 c 0,-1.98787 -0.10229,-2.95814 -0.33073,-3.13707 -0.60774,-0.47602 -4.14847,-1.70063 -4.42425,-1.53018 -0.15686,0.0969 -0.2721,1.28117 -0.2721,2.79614 0,2.21711 0.0724,2.67285 0.46302,2.91497 0.68673,0.42566 3.85121,1.77684 4.23333,1.80757 0.24594,0.0198 0.33073,-0.71122 0.33073,-2.85143 z m -6.21771,-2.56799 v -2.88837 l -2.11666,-0.85391 c -1.16417,-0.46965 -2.2694,-0.8566 -2.45607,-0.85989 -0.26052,-0.005 -0.32201,0.67668 -0.26458,2.93167 l 0.0748,2.93765 2.11667,0.87391 c 1.16416,0.48065 2.23573,0.84543 2.38125,0.81061 0.15636,-0.0374 0.26458,-1.24468 0.26458,-2.95167 z m -6.21771,-2.34242 c 0,-1.86135 -0.10524,-2.81743 -0.33073,-3.00452 -0.41471,-0.34409 -3.83837,-1.64247 -4.33098,-1.64247 -0.4987,0 -0.53088,5.35432 -0.0346,5.76549 0.50433,0.41787 4.27229,1.86873 4.49792,1.73193 0.10914,-0.0662 0.19844,-1.34887 0.19844,-2.85043 z m 18.72794,-0.4798 -0.0748,-2.97656 -2.11667,-0.85391 c -1.16416,-0.46966 -2.26939,-0.85661 -2.45606,-0.8599 -0.26073,-0.005 -0.32205,0.68394 -0.26458,2.97058 l 0.0748,2.97656 2.11666,0.85391 c 1.16417,0.46965 2.2694,0.8566 2.45607,0.8599 0.26072,0.005 0.32205,-0.68394 0.26458,-2.97058 z m -6.29252,-2.28271 c 0,-1.99397 -0.10159,-2.95407 -0.33073,-3.12562 -0.64668,-0.48413 -4.15635,-1.7072 -4.42408,-1.54173 -0.28668,0.17717 -0.37591,4.35413 -0.11387,5.33058 0.10869,0.40503 0.72109,0.79097 2.1792,1.37339 1.11541,0.44552 2.17685,0.8171 2.35875,0.82572 0.24528,0.0116 0.33073,-0.72795 0.33073,-2.86234 z m -6.1399,-2.01975 c 0.11214,-3.42766 0.14771,-3.3636 -2.40206,-4.32595 -1.21017,-0.45674 -2.2875,-0.83045 -2.39409,-0.83045 -0.10658,0 -0.16012,1.33588 -0.11897,2.96863 l 0.0748,2.96862 1.98438,0.85231 c 1.0914,0.46877 2.16296,0.82819 2.38125,0.79871 0.31264,-0.0422 0.41338,-0.55837 0.47468,-2.43187 z m 12.4899,-3.38997 v -2.99608 l -2.39661,-0.95428 c -1.73713,-0.69169 -2.43148,-0.86341 -2.52333,-0.62406 -0.0697,0.18163 -0.0925,1.57233 -0.0508,3.09046 l 0.0759,2.76024 2.11666,0.85391 c 1.16417,0.46965 2.2655,0.85661 2.4474,0.8599 0.24546,0.004 0.33073,-0.76643 0.33073,-2.99009 z m 37.306254,-3.45637 C 89.764006,107.8908 74.984756,101.37369 60.538096,94.857484 c -5.02047,-2.26316 -10.16992,-4.59894 -11.44323,-5.19062 l -2.3151,-1.07579 v -13.76055 c 0,-10.832174 0.0704,-13.760514 0.33073,-13.760344 0.1819,1.1e-4 1.08556,0.3573 2.00813,0.79375 0.92257,0.43644 1.72624,0.79354 1.78594,0.79354 0.0597,0 0.10853,-1.144 0.10853,-2.54223 v -2.54222 l 0.67277,0.16885 c 0.37002,0.0929 1.35229,0.49273 2.18281,0.88858 l 1.51005,0.71973 0.13229,2.73343 0.13229,2.73344 2.64584,1.15426 2.64583,1.15426 0.13229,2.69647 0.13229,2.69646 1.98438,0.87296 1.98437,0.87295 0.0701,-7.94694 c 0.0545,-6.17681 0.14286,-7.91845 0.39688,-7.81902 0.17974,0.0704 1.19001,0.51508 2.24503,0.98827 l 1.91823,0.86035 v 5.27333 5.27334 l 2.25376,1.04124 c 1.23957,0.57268 2.37066,1.04124 2.51354,1.04124 0.14962,0 0.25979,-0.95374 0.25979,-2.24896 0,-1.23693 0.0811,-2.24896 0.18031,-2.24896 0.0992,0 1.10875,0.37961 2.24353,0.84358 l 2.06322,0.84358 0.0716,5.175694 0.0716,5.17569 2.11667,1.05867 2.11666,1.05867 0.0761,2.44764 0.0761,2.44764 1.30419,0.66088 c 0.7173,0.36348 1.36767,0.66088 1.44527,0.66088 0.0776,0 0.14109,-1.01203 0.14109,-2.24896 0,-1.36449 0.10702,-2.24896 0.27213,-2.24896 0.14967,0 0.9831,0.3589 1.85208,0.79756 l 1.57995,0.79756 v -5.16319 c 0,-3.95676 0.0773,-5.16204 0.33073,-5.1583 0.1819,0.003 1.2237,0.41415 2.31511,0.91436 l 1.98437,0.90948 0.13229,2.84331 0.13229,2.84331 2.51355,1.2311 2.513544,1.2311 0.0757,-2.47523 c 0.0458,-1.49834 0.18497,-2.47523 0.35253,-2.47523 0.15224,0 1.09061,0.35719 2.08528,0.79375 0.99467,0.43657 1.87977,0.79375 1.9669,0.79375 0.0871,0 0.1267,-3.18189 0.0879,-7.07086 L 104.85583,68.0949 94.537076,63.51308 c -17.17358,-7.62555 -41.43825,-18.31846 -46.38901,-20.44262 -0.94013,-0.40336 -0.58486,-0.80219 1.28987,-1.44804 2.82852,-0.97442 17.36555,-6.32456 35.44185,-13.04386 9.38609,-3.48898 17.899104,-6.6412 18.917794,-7.00491 l 1.85216,-0.66131 1.45513,0.53364 c 2.64107,0.96856 15.73628,5.86892 34.66033,12.97025 10.25922,3.84981 19.28427,7.20669 20.05566,7.45972 0.77139,0.25304 1.36154,0.58305 1.31144,0.73335 -0.0501,0.15029 -1.99092,1.10506 -4.31295,2.1217 -4.45527,1.95063 -35.4315,15.70904 -45.76144,20.32541 -3.34697,1.49574 -6.23424,2.83261 -6.41614,2.97082 -0.25392,0.19292 -0.33073,2.48667 -0.33073,9.876184 0,5.29369 0.10229,9.62489 0.22732,9.62489 0.12503,0 1.13706,-0.42032 2.24896,-0.93405 l 2.02164,-0.93406 v -2.6445 -2.6445 l 2.0174,-0.91936 c 1.10958,-0.50565 2.12161,-0.91936 2.24896,-0.91936 0.12735,0 0.23155,1.05172 0.23155,2.33715 0,1.28543 0.0698,2.40696 0.15512,2.49227 0.0853,0.0853 1.00469,-0.25203 2.04306,-0.74965 1.03836,-0.49763 2.04012,-0.90477 2.22613,-0.90477 0.24948,0 0.33819,0.62461 0.33819,2.38125 0,1.7378 0.0894,2.37659 0.33073,2.364 0.1819,-0.009 1.10464,-0.40001 2.05052,-0.86784 l 1.71979,-0.8506 0.0697,-8.65081 0.0697,-8.650814 2.01803,-0.93239 c 1.10992,-0.51281 2.0608,-0.93239 2.11306,-0.93239 0.0523,0 0.095,2.55985 0.095,5.68855 0,4.037204 0.0864,5.688544 0.29765,5.688544 0.4375,0 3.5099,-1.39266 3.71069,-1.68199 0.0945,-0.13622 0.12818,-1.152954 0.0748,-2.259404 -0.0534,-1.10646 0.004,-2.17493 0.12804,-2.37438 0.12384,-0.19945 0.98316,-0.69833 1.90961,-1.10862 l 1.68446,-0.74598 0.13229,4.87974 c 0.0728,2.683864 0.22796,4.893324 0.3449,4.909904 0.11693,0.0166 0.97694,-0.3112 1.91112,-0.72841 l 1.6985,-0.75857 0.007,-2.59075 0.007,-2.590764 1.74445,-0.78268 c 0.95945,-0.43048 1.85242,-0.78269 1.98438,-0.78269 0.13195,0 0.23992,1.01204 0.23992,2.24896 0,1.23693 0.087,2.248964 0.19332,2.248964 0.10633,0 0.82071,-0.26003 1.5875,-0.577854 l 1.39418,-0.57786 v -5.07526 -5.07526 l 1.85441,-0.82918 c 1.01993,-0.45604 1.97243,-0.82917 2.11667,-0.82917 0.15385,0 0.26225,0.98423 0.26225,2.38125 0,1.30968 0.0882,2.38125 0.19597,2.38125 0.10778,0 1.83011,-0.73383 3.8274,-1.63073 l 3.63143,-1.63073 0.0752,-2.53646 0.0752,-2.53646 1.71979,-0.84233 c 0.94589,-0.46329 1.86862,-0.85024 2.05052,-0.8599 0.48767,-0.0259 0.48356,32.069974 -0.004,32.474744 -0.18419,0.15286 -5.98848,2.8614 -12.89844,6.01898 -21.26377,9.716706 -24.71589,11.298226 -33.46564,15.331596 -7.04539,3.24771 -10.70651,4.69701 -11.50938,4.60374 -0.0502,-0.006 -0.38419,0.18932 -1.5875,-0.34072 z"
       id="path1"
       sodipodi:nodetypes="sssssscsssscssssssssssssscssssscsssssssssssssccssssssscssssscssssscssssssssssssssssssssssssssssssssssssssccssscssscsssscsssssscssssccscscsssccssssccscscscscsssssssssssscssssccssccsccccsscsssssccscccccccccscscccssssscccccccssssscscscccccssssccssssscsssssssssscccssssssscscccsssssscsccsscccssssscccssssscccsssssscc" /></g></svg>
